<svg xmlns="http://www.w3.org/2000/svg" width="1024" height="1024" fill="#999">
    <path d="M263 593h501v2c-1.879 1.523-1.879 1.523-4.563 3.375-4.65 3.296-9.132 6.726-13.562 10.313a671.471 671.471 0 0 1-16.313 12.75c-6.377 4.84-12.622 9.819-18.817 14.891C704.596 641.355 698.32 646.19 692 651a3637.783 3637.783 0 0 0-8.058 6.183c-5.758 4.433-11.468 8.928-17.176 13.426-2.92 2.3-5.843 4.595-8.766 6.891-3.454 2.713-6.908 5.427-10.36 8.145a4455.758 4455.758 0 0 1-21.958 17.156 3866.094 3866.094 0 0 0-18.996 14.872c-3.48 2.74-6.963 5.474-10.446 8.21a10150.16 10150.16 0 0 0-8.6 6.762 4455.758 4455.758 0 0 1-21.958 17.156 3167.885 3167.885 0 0 0-13.932 10.886l-1.697 1.334a2952.123 2952.123 0 0 0-8.643 6.823C517.69 787.617 517.69 787.617 510.75 787c-8.648-1.339-15.51-8.268-22-13.75a524.304 524.304 0 0 0-18.523-14.77c-3.541-2.704-7.008-5.497-10.477-8.293a709.549 709.549 0 0 0-16.188-12.625c-6.38-4.842-12.628-9.821-18.823-14.898-4.029-3.294-8.1-6.51-12.239-9.664-5.616-4.281-11.093-8.713-16.559-13.184A481.419 481.419 0 0 0 383.5 690c-5.588-4.262-11.046-8.666-16.488-13.113A765.816 765.816 0 0 0 354 666.5a862.6 862.6 0 0 1-15.063-12.063c-4.759-3.887-9.55-7.71-14.437-11.437-5.588-4.262-11.046-8.666-16.488-13.113A766.198 766.198 0 0 0 295 619.5c-5.847-4.565-11.61-9.226-17.355-13.919a438.71 438.71 0 0 0-13.239-10.41L263 594v-1Z"/>
    <path d="M426 761c10.215 7.56 20.153 15.47 30 23.5 6.726 5.484 13.496 10.905 20.355 16.221a570.75 570.75 0 0 1 3.27 2.562C493.014 813.847 503.987 817.456 521 816c9.27-2.045 16.18-7.233 23.5-13.063l3.727-2.949 1.903-1.509c1.772-1.402 3.55-2.796 5.33-4.186a1098.028 1098.028 0 0 0 18.602-14.856c5.022-4.094 10.066-8.155 15.188-12.125l3.078-2.386c2.205-1.59 4.24-2.759 6.672-3.926l1.338 1.11c8.041 6.666 16.104 13.288 24.348 19.702 4.695 3.667 9.29 7.448 13.876 11.25a558.803 558.803 0 0 0 18.141 14.391c7.259 5.566 14.28 11.442 21.359 17.234 7.774 6.356 15.592 12.618 23.579 18.708 4.642 3.571 9.163 7.294 13.699 11 3.358 2.74 6.724 5.462 10.16 8.105 4.125 3.174 8.155 6.46 12.188 9.75A921.519 921.519 0 0 0 753 884.5c5.245 4.1 10.45 8.25 15.625 12.438l2.047 1.648 1.93 1.566 1.697 1.375c1.992 1.725 3.838 3.61 5.701 5.473H245c5.62-5.62 5.62-5.62 8.164-7.578l1.693-1.315 1.768-1.357c1.253-.973 2.506-1.947 3.758-2.922l1.864-1.451c2.448-1.923 4.852-3.896 7.253-5.877 4.712-3.88 9.5-7.654 14.309-11.414 4.51-3.534 8.947-7.15 13.37-10.793 3.118-2.535 6.278-5.01 9.446-7.48 5.364-4.187 10.635-8.473 15.875-12.813a747.098 747.098 0 0 1 17.262-13.887c4.459-3.482 8.855-7.035 13.238-10.613a991.69 991.69 0 0 1 16.71-13.336c4.474-3.502 8.889-7.072 13.29-10.664a891.694 891.694 0 0 1 15-12c7.185-5.61 14.25-11.365 21.313-17.128 2.219-1.804 4.45-3.59 6.687-5.372ZM679 253c97.946 16.502 97.946 16.502 119 45 1.614 3.228 1.4 5.406 1 9-7.004 16.363-28.292 23.816-43.548 30.04-5.742 2.23-11.57 4.134-17.452 5.96l-3.079.972c-17.558 5.481-35.125 9.222-53.216 12.358-3.63.656-7.232 1.397-10.842 2.154-9.557 1.932-19.198 3.19-28.863 4.454l-2.959.39c-13.725 1.804-27.461 3.475-41.229 4.922l-2.149.233c-29.109 3.12-58.219 3.832-87.468 3.713-3.372-.011-6.744-.01-10.115-.01-23.011-.001-45.84-.573-68.767-2.623l-4.587-.403c-10.258-.906-20.51-1.854-30.726-3.16l-3.217-.407c-15.25-1.975-30.396-4.58-45.546-7.206l-4.29-.74c-17.082-2.93-33.855-6.713-50.635-11.022l-2.628-.663c-16.559-4.203-32.747-9.797-47.809-17.962l-2.364-1.269C228.82 321.954 219.89 316.58 216 307c-.71-3.612-.69-5.693 1.04-8.969 18.966-27.55 67.342-34.392 97.46-41.031l2.105-.467c12.357-2.72 12.357-2.72 17.395-2.533l-.351 1.953c-.533 2.973-1.06 5.948-1.587 8.922l-.552 3.07c-.858 4.867-1.658 9.735-2.256 14.64l-.29 2.385c-.145 2.305-.145 2.305 1.911 4.78L334 292l1.931 1.392c5.378 3.74 10.675 6.37 16.819 8.608l2.755 1.02c24.601 8.938 50.167 13.875 76.035 17.479 3.441.498 6.866 1.065 10.296 1.638 18.294 2.838 36.482 3.24 54.973 3.238 1.964 0 3.928.003 5.892.005 24.627-.003 49.082-1.335 73.486-4.692l2.42-.327c54.688-6.016 54.688-6.016 102.08-30.548 3.485-4.667 3.097-9.246 2.313-14.813-1.032-5.398-2.287-10.74-3.633-16.068C679 257 679 257 679 253ZM221 592l1 2h-2v3l1.61.7c3.145 1.71 5.853 3.884 8.64 6.112l1.842 1.46c5.377 4.272 10.695 8.616 16.014 12.96A493.715 493.715 0 0 0 260.5 628c5.588 4.262 11.046 8.666 16.488 13.113 4.864 3.97 9.78 7.865 14.73 11.727 4.413 3.454 8.758 6.985 13.094 10.535 5.46 4.467 11 8.806 16.625 13.063 6.603 4.999 13.027 10.178 19.396 15.47a619.458 619.458 0 0 0 14.927 11.977c4.484 3.5 8.899 7.078 13.303 10.678a681.76 681.76 0 0 0 17.675 13.937c5.806 4.433 11.526 8.977 17.262 13.5-1.335 4.006-3.993 5.557-7.25 8-4.96 3.802-9.818 7.682-14.563 11.75a312.993 312.993 0 0 1-12.972 10.531c-3.409 2.645-6.73 5.394-10.063 8.133-3.705 3.044-7.429 6.064-11.152 9.086-4.507 3.659-9.01 7.321-13.5 11-7.847 6.428-15.728 12.814-23.603 19.207A7014.668 7014.668 0 0 0 286 840a5563.15 5563.15 0 0 1-18.688 15.25l-2.06 1.673c-3.41 2.77-6.823 5.54-10.236 8.307-4.01 3.252-8.014 6.51-12.016 9.77l-2.179 1.771C231.994 883.956 223.306 891.214 215 899l-2-1c-.854-65.331-1.577-130.664-2-196l-.024-3.626c-.097-15.182-.17-30.363-.207-45.544-.011-4.32-.029-8.64-.053-12.959-.027-5.014-.04-10.03-.04-15.044a951.58 951.58 0 0 0-.024-5.482 791.93 791.93 0 0 1-.008-7.461l-.028-2.174c.046-5.512 1.36-9.605 5.208-13.608l1.863-1.477 1.887-1.523L221 592ZM802 592c4.058 1.503 6.738 4.4 9 8 1.753 4.444 2.24 8.109 2.207 12.872l-.006 2.049c-.009 2.284-.032 4.568-.055 6.852-.01 1.675-.018 3.35-.026 5.026-.019 3.712-.044 7.425-.074 11.137-.05 6.335-.081 12.67-.11 19.005-.141 28.88-.352 57.76-.563 86.639l-.063 8.652-.015 2.17c-.085 11.71-.158 23.42-.227 35.13-.072 12.093-.154 24.187-.248 36.28-.052 6.763-.098 13.526-.132 20.289-.033 6.325-.079 12.65-.136 18.974-.018 2.322-.032 4.645-.04 6.967-.011 3.159-.04 6.317-.075 9.476l.003 2.807-.04 2.555-.015 2.207c-.49 2.43-1.52 3.342-3.385 4.913-6.22-4.316-12.105-8.846-17.813-13.813-4.575-3.981-9.207-7.843-14-11.562a650.964 650.964 0 0 1-15.562-12.5l-2.16-1.786-2.164-1.788c-9.076-7.502-18.201-14.938-27.489-22.176-5.176-4.035-10.215-8.205-15.206-12.466a425.25 425.25 0 0 0-11.829-9.694c-3.53-2.816-7.027-5.673-10.527-8.528a841.477 841.477 0 0 0-15.375-12.25c-5.348-4.161-10.501-8.51-15.619-12.95-4.626-3.995-9.381-7.794-14.206-11.545-4.561-3.545-9.035-7.187-13.495-10.86-3.799-3.096-7.668-6.098-11.555-9.082 3.848-3.995 7.932-7.523 12.25-11l2.105-1.705c5.746-4.628 11.606-9.1 17.489-13.552 4.97-3.782 9.761-7.724 14.494-11.797 4.057-3.477 8.25-6.741 12.509-9.968 4.625-3.526 9.114-7.204 13.59-10.915C700.86 677.91 708.394 671.922 716 666a1395.723 1395.723 0 0 0 24.039-19.164 897.196 897.196 0 0 1 14.67-11.67c4.498-3.52 8.93-7.115 13.354-10.729a682.031 682.031 0 0 1 17.675-13.937c5.806-4.433 11.526-8.977 17.262-13.5l-1-5Z"/>
    <path d="M619.5 103.875c15.904 13.518 18.489 41.097 22.733 60.318a342.224 342.224 0 0 0 4.08 16.432c2.604 9.599 4.765 19.297 6.937 29l.541 2.397C657.37 227.894 657.37 227.894 658 236c-21.292 8.06-43.99 11.763-66.494 14.562a712.71 712.71 0 0 0-6.9.896C562.4 254.434 540.358 254.322 518 254c-1.312-3.11-2.33-6.054-2.973-9.367l-.524-2.625-.566-2.883c-2.638-13.086-5.664-26.074-8.726-39.066l-1.125-4.809-.556-2.355c-.883-3.809-1.675-7.604-2.295-11.465l-.361-2.2a410.688 410.688 0 0 1-.883-5.91c-1.556-5.214-5.182-8.021-9.636-10.898l-2.025-1.315-2.142-1.357-2.262-1.445c-7.48-4.732-15.117-9.14-22.926-13.305l-2.028-1.083c-11.99-6.337-24.037-11.16-37.284-14.23l-2.209-.52c-5.244-1.138-10.115-1.31-15.479-1.167-3.29 6.987-5.923 14.118-8.375 21.438l-.625 1.86c-6.24 18.706-11.305 37.776-16.532 56.781-2.752 9.994-5.6 19.96-8.468 29.921a283946590.874 283946590.874 0 0 1-7.458-1.453c-2.935-.632-5.726-1.51-8.542-2.547 1.823-14.907 5.996-29.28 9.867-43.757 1.019-3.812 2.032-7.625 3.045-11.439.918-3.452 1.839-6.903 2.76-10.354.466-1.75.931-3.498 1.395-5.248 2.578-9.715 5.228-19.405 8.074-29.046l.715-2.46c3.386-11.316 8.311-21.795 19.03-27.743 24.836-11.42 59.984 2.702 83.665 11.414l3.035 1.124c15.811 5.813 26.154 5.496 41.789-.417 67.493-25.394 67.493-25.394 92.125-12.199ZM316 447c4.504 5.875 5.233 11.152 4.498 18.468-1.677 8.531-6.275 16.558-9.992 24.347-2.333 4.935-4.524 9.927-6.693 14.935l-1.17 2.614-1.061 2.433-.93 2.104c-.78 2.514-.904 4.48-.652 7.099 2.128 2.774 2.128 2.774 5 5.375l1.536 1.473c3.296 3.138 6.687 6.155 10.14 9.117 11.362 9.949 22.044 20.626 32.66 31.356A1178.35 1178.35 0 0 0 354 571c-20.895.794-35.606-3.58-51.98-17.047L300 552v-2l-3-1c-1.324-1.383-1.324-1.383-2.688-3.125-4.212-5.09-9.237-9.15-14.304-13.363-1.024-.879-2.048-1.757-3.07-2.637l-2.91-2.445C272 525 272 525 272.192 522.68c.896-2.978 2.12-5.33 3.694-8.013l1.823-3.132 1.978-3.349 2.038-3.49c1.746-2.991 3.5-5.978 5.255-8.963 2.166-3.687 4.318-7.38 6.472-11.074 1.152-1.974 2.305-3.947 3.459-5.92 2.882-4.93 5.74-9.872 8.56-14.838l1.674-2.946c1.044-1.843 2.086-3.688 3.124-5.535l1.402-2.476 1.222-2.171C314 449 314 449 316 447ZM700 446c2.777 2.483 4.424 5.224 6.258 8.453l1.88 3.29.983 1.734c1.693 2.99 3.402 5.97 5.11 8.953l1.011 1.77a522.018 522.018 0 0 0 7.196 12.175c5.225 8.622 10.176 17.404 15.156 26.17.34.6.682 1.2 1.034 1.818l2.819 4.964c1.12 1.93 2.315 3.817 3.553 5.673-.108 3.358-.65 4.651-3.047 7.035l-2.703 2.028c-5.17 4.022-9.978 8.286-14.745 12.775A148.597 148.597 0 0 1 715 551l-2.375 2.375C699.092 566.908 682.835 571.355 664 572v-2c1.275-1.252 1.275-1.252 3.156-2.781 3.94-3.35 7.61-6.896 11.25-10.563l1.737-1.746c1.788-1.802 3.573-3.605 5.357-5.41 14.037-14.197 14.037-14.197 21.5-20.5a213.427 213.427 0 0 0 5.563-5.063l2.628-2.41c2.103-2.37 2.103-2.37 1.622-5.18-.973-4.006-2.405-7.635-4.016-11.421l-.969-2.317c-1.02-2.435-2.049-4.865-3.078-7.296l-2.027-4.842c-3.138-7.477-6.297-14.917-9.853-22.208-2.732-7.105-.83-14.53 2.13-21.263l1-1ZM631 397c-3.425 15.26-10.13 27.88-23.25 36.875-13.274 7.799-27.163 9.037-42 5.5-16.338-4.283-16.338-4.283-20.04-10.563L545 427c23.91-16.298 56.62-30 86-30ZM385 397c29.393 1.133 58.034 14.306 83 29v4c-8.87 8.87-21.935 11.28-34 11.438-13.698-.095-24.24-4.862-34.188-14.188C392.824 419.9 385 407.525 385 397Z"/>
</svg>
