<svg xmlns="http://www.w3.org/2000/svg" width="266.667" height="266.667" version="1.0" viewBox="0 0 200 200">
    <g fill="#212131">
        <path d="M67.2 7.5c-1.6 1.3-3.4 3.7-4 5.2C62.3 15.1 60 29 60 32c0 .6 15.2 1 40.1 1h40.1l-.5-3.3c-.3-1.7-.9-5.9-1.3-9.2-.8-7-2.3-10.5-6-13.4-4-3.2-9.1-2.7-19.8 1.9-5.1 2.2-10.8 4-12.6 4-1.8 0-7.5-1.8-12.6-4-11.2-4.8-15.9-5.1-20.2-1.5zM57.6 50.6c-.3.9-.6 2.8-.6 4.4 0 5.6-.6 6-8.6 6-6.1 0-7.8.4-9.4 2-3 3-2.7 8.3.6 10.9C42.2 76 43.1 76 100 76s57.8 0 60.4-2.1c3.3-2.6 3.6-7.9.6-10.9-1.6-1.6-3.3-2-9.4-2-8 0-8.6-.4-8.6-6 0-6.4 2.9-6-43-6-37.2 0-41.9.2-42.4 1.6zM51 94c0 .5 3 2.9 6.8 5.3 14.1 9.2 27.2 22.6 37.2 38.1 2.4 3.6 4.7 6.6 5.1 6.6.5 0 1.5-1.3 2.3-2.8 3.1-6 14.3-20 21.8-27.4 4.4-4.3 11.7-10.3 16.4-13.4 4.6-3.1 8.4-6 8.4-6.5s-20.3-.9-49-.9c-30.3 0-49 .4-49 1zM28.6 118.2l-14.8 5 13.6 7.2c7.5 3.9 13.6 7.5 13.6 7.9 0 .4-3.2 5.5-7.1 11.3-3.9 5.8-6.8 10.8-6.5 11.1.3.3 4.8 2 10 3.8 20.1 7 40.4 16.7 54.5 26 13.8 9.1 14.4 4.7 2.6-20-10.5-21.9-26.8-42.2-42.3-52.6-4-2.7-7.7-4.9-8-4.8-.4 0-7.4 2.3-15.6 5.1zM147.9 117.9c-13 8.7-28 25.8-37.4 42.7l-2.8 5.1 3.8 9.4c2.1 5.2 4 9.5 4.1 9.7.1.2 6.7-2.8 14.6-6.6 13.5-6.6 37.4-16.2 40.3-16.2 3.1 0 2.2-2.5-4.5-12.4-3.8-5.8-7-10.9-7-11.3 0-.4 6.1-4 13.6-7.9l13.6-7.2-14.3-4.7c-7.9-2.6-14.9-5-15.5-5.2-.6-.2-4.4 1.8-8.5 4.6z"/>
    </g>
</svg>